<svg xmlns="http://www.w3.org/2000/svg" width="179.07" height="20.37" viewBox="0 0 134.31 15.27"
    xmlns:v="https://vecta.io/nano">
    <path fill="#4a7729"
        d="M0 7.41c0 5.39 3.16 7.37 7.16 7.37 1.3 0 3.82-.43 5-1.59.35-.35.35-.7.35-1.38V8.07c0-1-.41-1.57-1.44-1.57H7.54A1.17 1.17 0 0 0 6.3 7.76 1.17 1.17 0 0 0 7.54 9h2.1v2.77a7.65 7.65 0 0 1-2.58.45c-2.12 0-4-1.32-4-4.83S5 2.66 6.92 2.66a4.78 4.78 0 0 1 2.5.6 1.87 1.87 0 0 0 1 .29 1.16 1.16 0 0 0 1.19-1.26 1.54 1.54 0 0 0-.49-1.09A6.25 6.25 0 0 0 7 0C3.7 0 0 1.92 0 7.41zm32.63 4.85a2 2 0 0 0 2.17 2.15h6a1.21 1.21 0 0 0 1.2-1.28 1.17 1.17 0 0 0-1.24-1.24H36c-.27 0-.39-.12-.39-.39V1.63A1.44 1.44 0 0 0 34.12.16a1.41 1.41 0 0 0-1.49 1.47zm11.17.93a1.34 1.34 0 0 0 1.45 1.43 1.36 1.36 0 0 0 1.48-1.43V8.36h4.71a1.21 1.21 0 0 0 1.24-1.28 1.17 1.17 0 0 0-1.24-1.24h-4.71V3.28c0-.27.13-.39.4-.39h4.71a1.16 1.16 0 0 0 1.23-1.24A1.21 1.21 0 0 0 51.84.37H46a2 2 0 0 0-2.2 2.15z" />
    <path fill="#ffc629"
        d="M56.72 13.52a1 1 0 0 0 1.08 1.09 1 1 0 0 0 1.09-1.09V1.3A1 1 0 0 0 57.8.21a1 1 0 0 0-1.08 1.09zm5.77 0a1 1 0 0 0 1 1.09 1 1 0 0 0 1.09-1.09V6l-.06-1.75.91 1.41L71.28 14a1.43 1.43 0 0 0 1.26.7 1.08 1.08 0 0 0 1.09-1.15V1.28a1 1 0 0 0-1-1.07 1 1 0 0 0-1.1 1.07v9.29c-.22-.42-.66-1.06-.88-1.39L64.9.93a1.43 1.43 0 0 0-1.3-.77 1.09 1.09 0 0 0-1.11 1.18z" />
    <g fill="#4a7729">
        <path fill-rule="evenodd"
            d="M77.9 13.84a6.82 6.82 0 0 0 4.55 1.43c3.16 0 5.61-1.51 5.61-4.4 0-4.71-5.82-4.15-7.1-5.43a1.15 1.15 0 0 1-.33-.85c0-.95.68-1.44 2-1.44a4.56 4.56 0 0 1 2.13.47A2.84 2.84 0 0 0 86 4a1.15 1.15 0 0 0 1.19-1.25c0-1.87-3-2.29-4.48-2.29-3 0-5.08 1.66-5.08 4.17 0 5 5.47 3.93 7.13 5.58A1.17 1.17 0 0 1 85 11c0 1.12-1 1.57-2.44 1.57a5.11 5.11 0 0 1-2.77-.84 2.4 2.4 0 0 0-1.17-.44 1.28 1.28 0 0 0-1.3 1.32 1.67 1.67 0 0 0 .58 1.23zm12.72-.16a1.34 1.34 0 0 0 1.45 1.42 1.37 1.37 0 0 0 1.48-1.42v-3.12h2.75c3.53 0 5-2.33 5-4.83S99.85.86 96.3.86h-4.23a1.33 1.33 0 0 0-1.45 1.42zM93.55 8V3.37h2.63c1.71 0 2.12 1.24 2.12 2.34S97.89 8 96.18 8z" />
        <path
            d="M102 13.55c0 1.14.62 1.55 1.4 1.55a1.4 1.4 0 0 0 1.43-1.38 18.42 18.42 0 0 1 .41-2.15h5.43a20.8 20.8 0 0 1 .41 2.15 1.4 1.4 0 0 0 1.42 1.38 1.37 1.37 0 0 0 1.5-1.57c0-2.7-2.38-9.94-4.92-12.48a1.51 1.51 0 0 0-2.12 0c-2.54 2.54-4.91 9.8-4.91 12.5zm3.84-4.41a19.7 19.7 0 0 1 1.65-4.23c.18-.35.33-.68.45-1l.45 1a19.78 19.78 0 0 1 1.66 4.23zm10.65 4.5a1.35 1.35 0 0 0 1.51 1.42 1.37 1.37 0 0 0 1.49-1.42V2A1.36 1.36 0 0 0 118 .62 1.34 1.34 0 0 0 116.52 2zm6.11 0a1.35 1.35 0 0 0 1.4 1.42 1.38 1.38 0 0 0 1.48-1.42V8.15c0-.79 0-1.36-.06-2.11a16.87 16.87 0 0 0 1 1.61l4.73 6.63a1.94 1.94 0 0 0 1.63.78 1.43 1.43 0 0 0 1.44-1.51V2a1.34 1.34 0 0 0-1.4-1.42 1.39 1.39 0 0 0-1.4 1.42v5.55c0 .76 0 1.36.07 2.08h-.05a16.66 16.66 0 0 0-1-1.54l-4.62-6.55a1.84 1.84 0 0 0-1.69-.92 1.46 1.46 0 0 0-1.53 1.54zM18.82 3a2.08 2.08 0 0 0-2 2.17c0 1.14 1 2.77 2.91 4.53a23.43 23.43 0 0 0 2.42 1.95c1.82-1.28 5.32-4.23 5.32-6.48a2.08 2.08 0 0 0-2-2.17 2 2 0 0 0-2 2.07 1.38 1.38 0 0 1-2.75 0 2 2 0 0 0-2-2.07m-.93 8.73c-2.41-2.27-3.69-4.49-3.69-6.52A4.83 4.83 0 0 1 18.82.29a4.65 4.65 0 0 1 3.35 1.43A4.65 4.65 0 0 1 25.52.29a4.83 4.83 0 0 1 4.72 4.92c0 2-1.29 4.25-3.79 6.56a28.94 28.94 0 0 1-3.54 2.72 1.42 1.42 0 0 1-.74.22 1.39 1.39 0 0 1-.74-.22 27.49 27.49 0 0 1-3.54-2.72" />
    </g>
</svg>